<mxfile host="app.diagrams.net" modified="2020-03-19T21:21:02.342Z" agent="Mozilla/5.0 (Macintosh; Intel Mac OS X 10_14_5) AppleWebKit/537.36 (KHTML, like Gecko) Chrome/80.0.3987.122 Safari/537.36" etag="83L1fiAwzYoIB46pEL2o" version="12.8.8" type="github">
  <diagram id="Jz34AsoVb9xMabwrAQ7U" name="Page-1">
    <mxGraphModel dx="1113" dy="631" grid="1" gridSize="10" guides="1" tooltips="1" connect="1" arrows="1" fold="1" page="1" pageScale="1" pageWidth="850" pageHeight="1100" math="0" shadow="0">
      <root>
        <mxCell id="0" />
        <mxCell id="1" parent="0" />
        <mxCell id="uLXW7cTtwZ400Y44Yqbc-35" style="edgeStyle=orthogonalEdgeStyle;rounded=0;orthogonalLoop=1;jettySize=auto;html=1;exitX=0.5;exitY=1;exitDx=0;exitDy=0;entryX=0.5;entryY=0;entryDx=0;entryDy=0;startArrow=none;startFill=0;endArrow=none;endFill=0;" edge="1" parent="1" source="KLRAchx4_iJwyPS_-QJn-1" target="KLRAchx4_iJwyPS_-QJn-18">
          <mxGeometry relative="1" as="geometry" />
        </mxCell>
        <mxCell id="KLRAchx4_iJwyPS_-QJn-1" value="&lt;font style=&quot;font-size: 16px&quot;&gt;/uofm/&lt;/font&gt;" style="rounded=0;whiteSpace=wrap;html=1;" parent="1" vertex="1">
          <mxGeometry x="792.5" y="170" width="95" height="40" as="geometry" />
        </mxCell>
        <mxCell id="KLRAchx4_iJwyPS_-QJn-16" value="&lt;font style=&quot;font-size: 16px&quot;&gt;&lt;br&gt;&lt;br&gt;&lt;br&gt;&lt;br&gt;&lt;br&gt;&lt;br&gt;&lt;br&gt;&lt;br&gt;&lt;br&gt;&lt;br&gt;&lt;br&gt;&lt;br&gt;&lt;br&gt;&lt;br&gt;&lt;br&gt;&lt;br&gt;&lt;br&gt;&lt;br&gt;&lt;br&gt;&lt;font style=&quot;font-size: 16px&quot;&gt;&lt;br&gt;&amp;nbsp; Device Namespace&amp;nbsp; &amp;nbsp; &amp;nbsp; &amp;nbsp; &amp;nbsp; &amp;nbsp; &amp;nbsp; &amp;nbsp; &amp;nbsp; &amp;nbsp; &amp;nbsp; &amp;nbsp; &amp;nbsp; &amp;nbsp; &amp;nbsp; &amp;nbsp; &amp;nbsp; &amp;nbsp; &amp;nbsp; &amp;nbsp; &amp;nbsp; &amp;nbsp; &amp;nbsp; &amp;nbsp; &amp;nbsp; &amp;nbsp; &amp;nbsp; &amp;nbsp; &amp;nbsp; &amp;nbsp; &amp;nbsp; &amp;nbsp; &amp;nbsp; &amp;nbsp; &amp;nbsp; &amp;nbsp; &amp;nbsp; &amp;nbsp; &amp;nbsp; &amp;nbsp; &amp;nbsp;&amp;nbsp;&lt;/font&gt;&lt;/font&gt;" style="rounded=0;whiteSpace=wrap;html=1;dashed=1;" parent="1" vertex="1">
          <mxGeometry x="792.5" y="309.5" width="430" height="395" as="geometry" />
        </mxCell>
        <mxCell id="KLRAchx4_iJwyPS_-QJn-17" value="" style="group" parent="1" vertex="1" connectable="0">
          <mxGeometry x="1230" y="309.5" width="190" height="190" as="geometry" />
        </mxCell>
        <mxCell id="KLRAchx4_iJwyPS_-QJn-8" value="&lt;h3 style=&quot;text-align: left&quot;&gt;&lt;font style=&quot;font-weight: normal&quot;&gt;&lt;br&gt;&lt;/font&gt;&lt;/h3&gt;&lt;h3&gt;&lt;font style=&quot;font-weight: normal&quot;&gt;&lt;br&gt;&lt;/font&gt;&lt;/h3&gt;&lt;h3&gt;&lt;font style=&quot;font-weight: normal&quot;&gt;&lt;br&gt;&lt;/font&gt;&lt;/h3&gt;&lt;h3&gt;&lt;span style=&quot;font-size: 12px ; font-weight: normal&quot;&gt;&lt;br&gt;&lt;/span&gt;&lt;/h3&gt;&lt;h3&gt;&lt;span style=&quot;font-size: 12px ; font-weight: normal&quot;&gt;&lt;br&gt;&lt;/span&gt;&lt;/h3&gt;&lt;h3 style=&quot;font-size: 16px&quot;&gt;&lt;span style=&quot;font-weight: normal&quot;&gt;&lt;font style=&quot;font-size: 16px&quot;&gt;&lt;br&gt;&amp;nbsp; Discovery&lt;/font&gt;&lt;/span&gt;&lt;span style=&quot;font-weight: normal&quot;&gt;&amp;nbsp; &amp;nbsp; &amp;nbsp; &amp;nbsp; &amp;nbsp; &amp;nbsp; &amp;nbsp; &amp;nbsp; &amp;nbsp; &amp;nbsp; &amp;nbsp; &amp;nbsp; &amp;nbsp; &amp;nbsp; &amp;nbsp; &amp;nbsp;&amp;nbsp;&lt;/span&gt;&lt;br&gt;&lt;/h3&gt;" style="whiteSpace=wrap;html=1;aspect=fixed;dashed=1;" parent="KLRAchx4_iJwyPS_-QJn-17" vertex="1">
          <mxGeometry width="190" height="190" as="geometry" />
        </mxCell>
        <mxCell id="KLRAchx4_iJwyPS_-QJn-9" value="&lt;font style=&quot;font-size: 15px&quot;&gt;discovery&lt;/font&gt;" style="rounded=0;whiteSpace=wrap;html=1;" parent="KLRAchx4_iJwyPS_-QJn-17" vertex="1">
          <mxGeometry x="59.379999999999995" y="10" width="71.25" height="30" as="geometry" />
        </mxCell>
        <mxCell id="KLRAchx4_iJwyPS_-QJn-10" value="&lt;font style=&quot;font-size: 15px&quot;&gt;apps&lt;/font&gt;" style="rounded=0;whiteSpace=wrap;html=1;" parent="KLRAchx4_iJwyPS_-QJn-17" vertex="1">
          <mxGeometry x="10" y="60" width="71.25" height="30" as="geometry" />
        </mxCell>
        <mxCell id="KLRAchx4_iJwyPS_-QJn-11" value="&lt;font style=&quot;font-size: 15px&quot;&gt;device&lt;/font&gt;" style="rounded=0;whiteSpace=wrap;html=1;" parent="KLRAchx4_iJwyPS_-QJn-17" vertex="1">
          <mxGeometry x="112" y="60" width="71.25" height="30" as="geometry" />
        </mxCell>
        <mxCell id="KLRAchx4_iJwyPS_-QJn-12" value="&lt;font style=&quot;font-size: 15px&quot;&gt;digest&lt;/font&gt;" style="rounded=0;whiteSpace=wrap;html=1;" parent="KLRAchx4_iJwyPS_-QJn-17" vertex="1">
          <mxGeometry x="10" y="110" width="71.25" height="30" as="geometry" />
        </mxCell>
        <mxCell id="KLRAchx4_iJwyPS_-QJn-13" value="&lt;font style=&quot;font-size: 15px&quot;&gt;digest&lt;/font&gt;" style="rounded=0;whiteSpace=wrap;html=1;" parent="KLRAchx4_iJwyPS_-QJn-17" vertex="1">
          <mxGeometry x="112" y="110" width="71.25" height="30" as="geometry" />
        </mxCell>
        <mxCell id="uLXW7cTtwZ400Y44Yqbc-31" style="edgeStyle=orthogonalEdgeStyle;rounded=0;orthogonalLoop=1;jettySize=auto;html=1;exitX=0.5;exitY=1;exitDx=0;exitDy=0;entryX=0.5;entryY=0;entryDx=0;entryDy=0;startArrow=none;startFill=0;endArrow=none;endFill=0;" edge="1" parent="1" target="uLXW7cTtwZ400Y44Yqbc-2">
          <mxGeometry relative="1" as="geometry">
            <mxPoint x="840.0050000000001" y="261" as="sourcePoint" />
          </mxGeometry>
        </mxCell>
        <mxCell id="KLRAchx4_iJwyPS_-QJn-18" value="&lt;font style=&quot;font-size: 16px&quot;&gt;bms&lt;/font&gt;" style="rounded=0;whiteSpace=wrap;html=1;" parent="1" vertex="1">
          <mxGeometry x="790" y="229" width="100.01" height="30" as="geometry" />
        </mxCell>
        <mxCell id="uLXW7cTtwZ400Y44Yqbc-10" style="edgeStyle=orthogonalEdgeStyle;rounded=0;orthogonalLoop=1;jettySize=auto;html=1;exitX=0.5;exitY=1;exitDx=0;exitDy=0;entryX=0.5;entryY=0;entryDx=0;entryDy=0;endArrow=none;endFill=0;" edge="1" parent="1" source="KLRAchx4_iJwyPS_-QJn-20" target="uLXW7cTtwZ400Y44Yqbc-4">
          <mxGeometry relative="1" as="geometry" />
        </mxCell>
        <mxCell id="uLXW7cTtwZ400Y44Yqbc-11" style="edgeStyle=orthogonalEdgeStyle;rounded=0;orthogonalLoop=1;jettySize=auto;html=1;exitX=0.5;exitY=1;exitDx=0;exitDy=0;startArrow=none;startFill=0;endArrow=none;endFill=0;" edge="1" parent="1" source="KLRAchx4_iJwyPS_-QJn-20" target="uLXW7cTtwZ400Y44Yqbc-6">
          <mxGeometry relative="1" as="geometry" />
        </mxCell>
        <mxCell id="KLRAchx4_iJwyPS_-QJn-20" value="&lt;font style=&quot;font-size: 15px&quot;&gt;dunn-hal&lt;/font&gt;" style="rounded=0;whiteSpace=wrap;html=1;" parent="1" vertex="1">
          <mxGeometry x="920" y="342" width="71.25" height="30" as="geometry" />
        </mxCell>
        <mxCell id="uLXW7cTtwZ400Y44Yqbc-2" value="&lt;font style=&quot;font-size: 15px&quot;&gt;FIT&lt;/font&gt;" style="rounded=0;whiteSpace=wrap;html=1;" vertex="1" parent="1">
          <mxGeometry x="804.38" y="342" width="71.25" height="30" as="geometry" />
        </mxCell>
        <mxCell id="uLXW7cTtwZ400Y44Yqbc-4" value="&lt;font style=&quot;font-size: 15px&quot;&gt;humidity&lt;/font&gt;" style="rounded=0;whiteSpace=wrap;html=1;" vertex="1" parent="1">
          <mxGeometry x="840" y="412" width="71.25" height="30" as="geometry" />
        </mxCell>
        <mxCell id="uLXW7cTtwZ400Y44Yqbc-15" style="edgeStyle=orthogonalEdgeStyle;rounded=0;orthogonalLoop=1;jettySize=auto;html=1;exitX=0.5;exitY=1;exitDx=0;exitDy=0;endArrow=none;endFill=0;" edge="1" parent="1" source="uLXW7cTtwZ400Y44Yqbc-5" target="uLXW7cTtwZ400Y44Yqbc-7">
          <mxGeometry relative="1" as="geometry" />
        </mxCell>
        <mxCell id="uLXW7cTtwZ400Y44Yqbc-5" value="&lt;font style=&quot;font-size: 15px&quot;&gt;repo&lt;/font&gt;" style="rounded=0;whiteSpace=wrap;html=1;" vertex="1" parent="1">
          <mxGeometry x="937.5" y="492" width="71.25" height="30" as="geometry" />
        </mxCell>
        <mxCell id="uLXW7cTtwZ400Y44Yqbc-6" value="&lt;font style=&quot;font-size: 15px&quot;&gt;temperature&lt;/font&gt;" style="rounded=0;whiteSpace=wrap;html=1;" vertex="1" parent="1">
          <mxGeometry x="998.75" y="412" width="91.25" height="30" as="geometry" />
        </mxCell>
        <mxCell id="uLXW7cTtwZ400Y44Yqbc-16" style="edgeStyle=orthogonalEdgeStyle;rounded=0;orthogonalLoop=1;jettySize=auto;html=1;exitX=0.5;exitY=1;exitDx=0;exitDy=0;endArrow=none;endFill=0;" edge="1" parent="1" source="uLXW7cTtwZ400Y44Yqbc-7" target="uLXW7cTtwZ400Y44Yqbc-9">
          <mxGeometry relative="1" as="geometry" />
        </mxCell>
        <mxCell id="uLXW7cTtwZ400Y44Yqbc-7" value="&lt;font style=&quot;font-size: 13px&quot;&gt;first floor/&lt;br&gt;room 2&lt;/font&gt;" style="rounded=0;whiteSpace=wrap;html=1;" vertex="1" parent="1">
          <mxGeometry x="937.5" y="542" width="71.25" height="29" as="geometry" />
        </mxCell>
        <mxCell id="uLXW7cTtwZ400Y44Yqbc-9" value="&lt;span id=&quot;docs-internal-guid-1526ecd3-7fff-48b2-5e1f-bb265e6a694b&quot;&gt;&lt;span style=&quot;background-color: transparent ; vertical-align: baseline ; white-space: pre-wrap&quot;&gt;&lt;font style=&quot;font-size: 15px&quot;&gt;repo-id&lt;/font&gt;&lt;br&gt;&lt;/span&gt;&lt;/span&gt;" style="rounded=0;whiteSpace=wrap;html=1;" vertex="1" parent="1">
          <mxGeometry x="937.5" y="591" width="71.25" height="29" as="geometry" />
        </mxCell>
        <mxCell id="uLXW7cTtwZ400Y44Yqbc-17" value="" style="endArrow=none;html=1;entryX=0.5;entryY=0;entryDx=0;entryDy=0;exitX=0.5;exitY=1;exitDx=0;exitDy=0;endFill=0;" edge="1" parent="1" source="uLXW7cTtwZ400Y44Yqbc-6" target="uLXW7cTtwZ400Y44Yqbc-5">
          <mxGeometry width="50" height="50" relative="1" as="geometry">
            <mxPoint x="940" y="452" as="sourcePoint" />
            <mxPoint x="990" y="402" as="targetPoint" />
          </mxGeometry>
        </mxCell>
        <mxCell id="uLXW7cTtwZ400Y44Yqbc-20" value="&lt;font style=&quot;font-size: 15px&quot;&gt;floor&lt;/font&gt;" style="rounded=0;whiteSpace=wrap;html=1;" vertex="1" parent="1">
          <mxGeometry x="1078.75" y="492" width="71.25" height="30" as="geometry" />
        </mxCell>
        <mxCell id="uLXW7cTtwZ400Y44Yqbc-30" style="edgeStyle=orthogonalEdgeStyle;rounded=0;orthogonalLoop=1;jettySize=auto;html=1;exitX=0.5;exitY=1;exitDx=0;exitDy=0;entryX=0.5;entryY=0;entryDx=0;entryDy=0;startArrow=none;startFill=0;endArrow=none;endFill=0;" edge="1" parent="1" source="uLXW7cTtwZ400Y44Yqbc-21" target="uLXW7cTtwZ400Y44Yqbc-22">
          <mxGeometry relative="1" as="geometry" />
        </mxCell>
        <mxCell id="uLXW7cTtwZ400Y44Yqbc-21" value="&lt;font style=&quot;font-size: 13px&quot;&gt;panel&lt;br&gt;/sensor&lt;/font&gt;" style="rounded=0;whiteSpace=wrap;html=1;" vertex="1" parent="1">
          <mxGeometry x="1078.75" y="542" width="71.25" height="29" as="geometry" />
        </mxCell>
        <mxCell id="uLXW7cTtwZ400Y44Yqbc-22" value="&lt;span id=&quot;docs-internal-guid-1526ecd3-7fff-48b2-5e1f-bb265e6a694b&quot;&gt;&lt;span style=&quot;background-color: transparent ; vertical-align: baseline ; white-space: pre-wrap&quot;&gt;&lt;font style=&quot;font-size: 15px&quot;&gt;celcius&lt;/font&gt;&lt;br&gt;&lt;/span&gt;&lt;/span&gt;" style="rounded=0;whiteSpace=wrap;html=1;" vertex="1" parent="1">
          <mxGeometry x="1078.75" y="591" width="71.25" height="29" as="geometry" />
        </mxCell>
        <mxCell id="uLXW7cTtwZ400Y44Yqbc-24" value="" style="endArrow=none;html=1;entryX=0.5;entryY=0;entryDx=0;entryDy=0;exitX=0.5;exitY=1;exitDx=0;exitDy=0;endFill=0;" edge="1" parent="1" source="uLXW7cTtwZ400Y44Yqbc-6" target="uLXW7cTtwZ400Y44Yqbc-20">
          <mxGeometry width="50" height="50" relative="1" as="geometry">
            <mxPoint x="1036.5625" y="452" as="sourcePoint" />
            <mxPoint x="954.375" y="512" as="targetPoint" />
          </mxGeometry>
        </mxCell>
        <mxCell id="uLXW7cTtwZ400Y44Yqbc-25" value="&lt;span id=&quot;docs-internal-guid-1526ecd3-7fff-48b2-5e1f-bb265e6a694b&quot;&gt;&lt;span style=&quot;background-color: transparent ; vertical-align: baseline ; white-space: pre-wrap&quot;&gt;&lt;font style=&quot;font-size: 15px&quot;&gt;seq-num&lt;/font&gt;&lt;br&gt;&lt;/span&gt;&lt;/span&gt;" style="rounded=0;whiteSpace=wrap;html=1;" vertex="1" parent="1">
          <mxGeometry x="939.38" y="642" width="71.25" height="29" as="geometry" />
        </mxCell>
        <mxCell id="uLXW7cTtwZ400Y44Yqbc-26" style="edgeStyle=orthogonalEdgeStyle;rounded=0;orthogonalLoop=1;jettySize=auto;html=1;endArrow=none;endFill=0;entryX=0.5;entryY=0;entryDx=0;entryDy=0;" edge="1" parent="1" target="uLXW7cTtwZ400Y44Yqbc-25">
          <mxGeometry relative="1" as="geometry">
            <mxPoint x="975" y="622" as="sourcePoint" />
            <mxPoint x="983.2" y="601" as="targetPoint" />
            <Array as="points" />
          </mxGeometry>
        </mxCell>
        <mxCell id="uLXW7cTtwZ400Y44Yqbc-28" value="" style="endArrow=none;html=1;exitX=0.5;exitY=0;exitDx=0;exitDy=0;entryX=0.5;entryY=1;entryDx=0;entryDy=0;" edge="1" parent="1" source="uLXW7cTtwZ400Y44Yqbc-21" target="uLXW7cTtwZ400Y44Yqbc-20">
          <mxGeometry width="50" height="50" relative="1" as="geometry">
            <mxPoint x="1070" y="552" as="sourcePoint" />
            <mxPoint x="1120" y="502" as="targetPoint" />
          </mxGeometry>
        </mxCell>
        <mxCell id="uLXW7cTtwZ400Y44Yqbc-33" value="" style="endArrow=none;html=1;entryX=0.5;entryY=1;entryDx=0;entryDy=0;exitX=0.5;exitY=0;exitDx=0;exitDy=0;" edge="1" parent="1" source="KLRAchx4_iJwyPS_-QJn-20">
          <mxGeometry width="50" height="50" relative="1" as="geometry">
            <mxPoint x="950" y="352" as="sourcePoint" />
            <mxPoint x="840.0050000000001" y="261" as="targetPoint" />
          </mxGeometry>
        </mxCell>
        <mxCell id="uLXW7cTtwZ400Y44Yqbc-34" value="&lt;br&gt;&lt;br&gt;&lt;br&gt;&lt;br&gt;&lt;br&gt;&lt;br&gt;&lt;br&gt;&lt;br&gt;&lt;br&gt;&lt;br&gt;&lt;br&gt;&lt;br&gt;&lt;br&gt;&lt;br&gt;&lt;br&gt;&lt;br&gt;&lt;br&gt;&lt;br&gt;&lt;br&gt;&lt;br&gt;&lt;br&gt;&lt;br&gt;&lt;br&gt;&lt;br&gt;&lt;br&gt;&lt;br&gt;&lt;br&gt;&lt;font style=&quot;font-size: 16px&quot;&gt;&lt;font style=&quot;font-size: 16px&quot;&gt;&amp;nbsp; User Namespace&amp;nbsp; &lt;/font&gt;&lt;font style=&quot;font-size: 16px&quot;&gt;&amp;nbsp; &amp;nbsp; &amp;nbsp; &amp;nbsp; &amp;nbsp; &amp;nbsp; &amp;nbsp; &amp;nbsp; &amp;nbsp; &amp;nbsp; &amp;nbsp; &amp;nbsp; &amp;nbsp; &amp;nbsp; &amp;nbsp; &amp;nbsp; &lt;/font&gt;&lt;/font&gt;&lt;font style=&quot;font-size: 15px&quot;&gt;&amp;nbsp; &amp;nbsp; &amp;nbsp; &amp;nbsp;&lt;/font&gt;" style="rounded=0;whiteSpace=wrap;html=1;dashed=1;" vertex="1" parent="1">
          <mxGeometry x="521" y="309.5" width="264" height="395" as="geometry" />
        </mxCell>
        <mxCell id="uLXW7cTtwZ400Y44Yqbc-36" value="&lt;font style=&quot;font-size: 16px&quot;&gt;CS&lt;/font&gt;" style="rounded=0;whiteSpace=wrap;html=1;" vertex="1" parent="1">
          <mxGeometry x="606.19" y="342" width="93.62" height="30" as="geometry" />
        </mxCell>
        <mxCell id="uLXW7cTtwZ400Y44Yqbc-37" value="&lt;font style=&quot;font-size: 15px&quot;&gt;User A&lt;/font&gt;" style="rounded=0;whiteSpace=wrap;html=1;" vertex="1" parent="1">
          <mxGeometry x="564" y="402" width="62.379999999999995" height="30" as="geometry" />
        </mxCell>
        <mxCell id="uLXW7cTtwZ400Y44Yqbc-38" value="&lt;font style=&quot;font-size: 15px&quot;&gt;User B&lt;/font&gt;" style="rounded=0;whiteSpace=wrap;html=1;" vertex="1" parent="1">
          <mxGeometry x="664" y="402" width="62.379999999999995" height="30" as="geometry" />
        </mxCell>
        <mxCell id="uLXW7cTtwZ400Y44Yqbc-39" value="&lt;font style=&quot;font-size: 15px&quot;&gt;Laptop&lt;/font&gt;" style="rounded=0;whiteSpace=wrap;html=1;" vertex="1" parent="1">
          <mxGeometry x="615" y="467" width="62.379999999999995" height="30" as="geometry" />
        </mxCell>
        <mxCell id="uLXW7cTtwZ400Y44Yqbc-56" style="edgeStyle=orthogonalEdgeStyle;rounded=0;orthogonalLoop=1;jettySize=auto;html=1;exitX=0.5;exitY=1;exitDx=0;exitDy=0;entryX=0.5;entryY=0;entryDx=0;entryDy=0;startArrow=none;startFill=0;endArrow=none;endFill=0;" edge="1" parent="1" source="uLXW7cTtwZ400Y44Yqbc-40" target="uLXW7cTtwZ400Y44Yqbc-41">
          <mxGeometry relative="1" as="geometry" />
        </mxCell>
        <mxCell id="uLXW7cTtwZ400Y44Yqbc-40" value="&lt;font style=&quot;font-size: 15px&quot;&gt;Mobile&lt;/font&gt;" style="rounded=0;whiteSpace=wrap;html=1;" vertex="1" parent="1">
          <mxGeometry x="701.81" y="467" width="62.379999999999995" height="30" as="geometry" />
        </mxCell>
        <mxCell id="uLXW7cTtwZ400Y44Yqbc-57" style="edgeStyle=orthogonalEdgeStyle;rounded=0;orthogonalLoop=1;jettySize=auto;html=1;exitX=0.5;exitY=1;exitDx=0;exitDy=0;entryX=0.5;entryY=0;entryDx=0;entryDy=0;startArrow=none;startFill=0;endArrow=none;endFill=0;" edge="1" parent="1" source="uLXW7cTtwZ400Y44Yqbc-41" target="uLXW7cTtwZ400Y44Yqbc-42">
          <mxGeometry relative="1" as="geometry" />
        </mxCell>
        <mxCell id="uLXW7cTtwZ400Y44Yqbc-41" value="&lt;font style=&quot;font-size: 15px&quot;&gt;Key&lt;/font&gt;" style="rounded=0;whiteSpace=wrap;html=1;" vertex="1" parent="1">
          <mxGeometry x="701.81" y="527" width="62.379999999999995" height="30" as="geometry" />
        </mxCell>
        <mxCell id="uLXW7cTtwZ400Y44Yqbc-42" value="&lt;font style=&quot;font-size: 15px&quot;&gt;Digest&lt;/font&gt;" style="rounded=0;whiteSpace=wrap;html=1;" vertex="1" parent="1">
          <mxGeometry x="701.81" y="576" width="62.379999999999995" height="30" as="geometry" />
        </mxCell>
        <mxCell id="uLXW7cTtwZ400Y44Yqbc-44" value="" style="shape=curlyBracket;whiteSpace=wrap;html=1;rounded=1;fillColor=#ffffff;rotation=-180;strokeColor=#000000;fontStyle=1;strokeWidth=1;gradientColor=#b3b3b3;perimeterSpacing=0;" vertex="1" parent="1">
          <mxGeometry x="920" y="170" width="8.67" height="40" as="geometry" />
        </mxCell>
        <mxCell id="uLXW7cTtwZ400Y44Yqbc-46" value="" style="shape=curlyBracket;whiteSpace=wrap;html=1;rounded=1;fillColor=#f5f5f5;rotation=-180;strokeColor=#1C1C1C;strokeWidth=1;gradientColor=#b3b3b3;" vertex="1" parent="1">
          <mxGeometry x="920" y="225" width="9.67" height="40" as="geometry" />
        </mxCell>
        <mxCell id="uLXW7cTtwZ400Y44Yqbc-47" value="&lt;font style=&quot;font-size: 15px&quot;&gt;Organization root (trust anchor)&lt;/font&gt;" style="text;html=1;align=center;verticalAlign=middle;resizable=0;points=[];autosize=1;" vertex="1" parent="1">
          <mxGeometry x="924.6700000000001" y="180" width="220" height="20" as="geometry" />
        </mxCell>
        <mxCell id="uLXW7cTtwZ400Y44Yqbc-48" value="&lt;font style=&quot;font-size: 15px&quot;&gt;BMS root&amp;nbsp;&lt;/font&gt;" style="text;html=1;align=center;verticalAlign=middle;resizable=0;points=[];autosize=1;" vertex="1" parent="1">
          <mxGeometry x="928.6700000000001" y="234" width="80" height="20" as="geometry" />
        </mxCell>
        <mxCell id="uLXW7cTtwZ400Y44Yqbc-50" value="" style="endArrow=none;html=1;entryX=0.5;entryY=1;entryDx=0;entryDy=0;exitX=0.5;exitY=0;exitDx=0;exitDy=0;" edge="1" parent="1" source="uLXW7cTtwZ400Y44Yqbc-37" target="uLXW7cTtwZ400Y44Yqbc-36">
          <mxGeometry width="50" height="50" relative="1" as="geometry">
            <mxPoint x="584" y="402" as="sourcePoint" />
            <mxPoint x="634" y="352" as="targetPoint" />
          </mxGeometry>
        </mxCell>
        <mxCell id="uLXW7cTtwZ400Y44Yqbc-51" value="" style="endArrow=none;html=1;exitX=0.5;exitY=0;exitDx=0;exitDy=0;" edge="1" parent="1" source="uLXW7cTtwZ400Y44Yqbc-38">
          <mxGeometry width="50" height="50" relative="1" as="geometry">
            <mxPoint x="804" y="502" as="sourcePoint" />
            <mxPoint x="654" y="372" as="targetPoint" />
          </mxGeometry>
        </mxCell>
        <mxCell id="uLXW7cTtwZ400Y44Yqbc-53" value="" style="endArrow=none;html=1;entryX=0.654;entryY=0.316;entryDx=0;entryDy=0;entryPerimeter=0;exitX=0.5;exitY=0;exitDx=0;exitDy=0;" edge="1" parent="1" source="uLXW7cTtwZ400Y44Yqbc-39">
          <mxGeometry width="50" height="50" relative="1" as="geometry">
            <mxPoint x="804" y="502" as="sourcePoint" />
            <mxPoint x="692.656" y="431.81999999999994" as="targetPoint" />
          </mxGeometry>
        </mxCell>
        <mxCell id="uLXW7cTtwZ400Y44Yqbc-54" value="" style="endArrow=none;html=1;entryX=0.5;entryY=1;entryDx=0;entryDy=0;exitX=0.5;exitY=0;exitDx=0;exitDy=0;" edge="1" parent="1" source="uLXW7cTtwZ400Y44Yqbc-40" target="uLXW7cTtwZ400Y44Yqbc-38">
          <mxGeometry width="50" height="50" relative="1" as="geometry">
            <mxPoint x="804" y="502" as="sourcePoint" />
            <mxPoint x="854" y="452" as="targetPoint" />
          </mxGeometry>
        </mxCell>
        <mxCell id="uLXW7cTtwZ400Y44Yqbc-58" value="" style="endArrow=none;html=1;exitX=0.5;exitY=0;exitDx=0;exitDy=0;entryX=0.5;entryY=1;entryDx=0;entryDy=0;" edge="1" parent="1" source="uLXW7cTtwZ400Y44Yqbc-36">
          <mxGeometry width="50" height="50" relative="1" as="geometry">
            <mxPoint x="780" y="487" as="sourcePoint" />
            <mxPoint x="840.0050000000001" y="261" as="targetPoint" />
          </mxGeometry>
        </mxCell>
        <mxCell id="uLXW7cTtwZ400Y44Yqbc-60" value="" style="shape=curlyBracket;whiteSpace=wrap;html=1;rounded=1;fillColor=#d5e8d4;rotation=-180;strokeColor=#000000;strokeWidth=1;" vertex="1" parent="1">
          <mxGeometry x="1098.33" y="342" width="15.34" height="100" as="geometry" />
        </mxCell>
        <mxCell id="uLXW7cTtwZ400Y44Yqbc-64" value="" style="shape=curlyBracket;whiteSpace=wrap;html=1;rounded=1;fillColor=#d5e8d4;rotation=-180;strokeColor=#000000;strokeWidth=1;" vertex="1" parent="1">
          <mxGeometry x="1160" y="495" width="12" height="76" as="geometry" />
        </mxCell>
        <mxCell id="uLXW7cTtwZ400Y44Yqbc-65" value="&lt;font style=&quot;font-size: 14px&quot;&gt;Pub-Sub &lt;br&gt;Group Prefix&lt;/font&gt;" style="text;html=1;align=center;verticalAlign=middle;resizable=0;points=[];autosize=1;" vertex="1" parent="1">
          <mxGeometry x="1121" y="367" width="90" height="40" as="geometry" />
        </mxCell>
        <mxCell id="uLXW7cTtwZ400Y44Yqbc-66" value="" style="shape=curlyBracket;whiteSpace=wrap;html=1;rounded=1;fillColor=#d5e8d4;rotation=0;strokeColor=#000000;strokeWidth=1;" vertex="1" parent="1">
          <mxGeometry x="918.25" y="541" width="11.75" height="36" as="geometry" />
        </mxCell>
        <mxCell id="uLXW7cTtwZ400Y44Yqbc-69" value="&lt;font style=&quot;font-size: 14px&quot;&gt;Repo &lt;br&gt;Location&lt;/font&gt;" style="text;html=1;align=center;verticalAlign=middle;resizable=0;points=[];autosize=1;" vertex="1" parent="1">
          <mxGeometry x="850" y="541" width="70" height="40" as="geometry" />
        </mxCell>
        <mxCell id="uLXW7cTtwZ400Y44Yqbc-72" value="Sensor&amp;nbsp;&lt;br&gt;Location" style="text;html=1;align=center;verticalAlign=middle;resizable=0;points=[];autosize=1;" vertex="1" parent="1">
          <mxGeometry x="1162.5" y="518" width="60" height="30" as="geometry" />
        </mxCell>
        <mxCell id="uLXW7cTtwZ400Y44Yqbc-73" value="" style="endArrow=none;html=1;entryX=0.5;entryY=1;entryDx=0;entryDy=0;exitX=0.5;exitY=0;exitDx=0;exitDy=0;" edge="1" parent="1" source="KLRAchx4_iJwyPS_-QJn-8">
          <mxGeometry width="50" height="50" relative="1" as="geometry">
            <mxPoint x="1060" y="407" as="sourcePoint" />
            <mxPoint x="840.0050000000001" y="261" as="targetPoint" />
          </mxGeometry>
        </mxCell>
      </root>
    </mxGraphModel>
  </diagram>
</mxfile>
